#Comment line ignore any data following # character 
#Hierarchical Translation and Rotation (.htr) file 
[Header]	
#Header keywords are followed by a single value 
FileType HTR		#Single word string
DataType HTRS		#Translation followed by rotation and scale data
FileVersion 1		#integer
NumSegments 84		#integer
NumFrames 2		#integer
DataFrameRate 30		#integer, data frame rate in this file
EulerRotationOrder ZYX
CalibrationUnits mm
RotationUnits Degrees
GlobalAxisofGravity Y
BoneLengthAxis Y
ScaleFactor 1.00
[SegmentNames&Hierarchy]
#CHILD	PARENT
MASTER GLOBAL
root MASTER
chest root
L_mid_tent01 root
R_mid_tent01 root
spine01 root
Bip01_Neck chest
L_humerus chest
R_humerus chest
weapon_bone chest
Bip01_Head Bip01_Neck
eye_left_bone Bip01_Head
eye_right_bone Bip01_Head
L_forearm L_humerus
L_front_hand L_forearm
L_weapon_bone L_forearm
L_front_hand01_01 L_front_hand
L_front_hand02_01 L_front_hand
L_front_hand03_01 L_front_hand
L_front_hand01_02 L_front_hand01_01
L_front_hand02_02 L_front_hand02_01
L_front_hand03_02 L_front_hand03_01
R_forearm R_humerus
R_front_hand R_forearm
R_weapon_bone R_forearm
R_front_hand01_01 R_front_hand
R_front_hand02_01 R_front_hand
R_front_hand03_01 R_front_hand
R_front_hand01_02 R_front_hand01_01
R_front_hand02_02 R_front_hand02_01
R_front_hand03_02 R_front_hand03_01
null_rope01_connect L_mid_tent01
Rope1_Seg01 null_rope01_connect
Rope1_Seg02 Rope1_Seg01
Rope1_Seg03 Rope1_Seg02
Rope1_Seg04 Rope1_Seg03
Rope1_Seg05 Rope1_Seg04
Rope1_Seg06 Rope1_Seg05
Rope1_Seg07 Rope1_Seg06
Rope1_Seg09 Rope1_Seg07
L_mid_hand01 Rope1_Seg09
L_mid_hand02 Rope1_Seg09
L_mid_hand03 Rope1_Seg09
null_rope02_connect R_mid_tent01
Rope2_Seg01 null_rope02_connect
Rope2_Seg02 Rope2_Seg01
Rope2_Seg03 Rope2_Seg02
Rope2_Seg04 Rope2_Seg03
Rope2_Seg05 Rope2_Seg04
Rope2_Seg06 Rope2_Seg05
Rope2_Seg07 Rope2_Seg06
Rope2_Seg09 Rope2_Seg07
R_mid_hand01 Rope2_Seg09
R_mid_hand02 Rope2_Seg09
R_mid_hand03 Rope2_Seg09
spine02 spine01
spine03 spine02
pelvis spine03
null_rope03_connect pelvis
null_rope04_connect pelvis
Rope3_Seg01 null_rope03_connect
Rope3_Seg02 Rope3_Seg01
Rope3_Seg03 Rope3_Seg02
Rope3_Seg04 Rope3_Seg03
Rope3_Seg05 Rope3_Seg04
Rope3_Seg06 Rope3_Seg05
Rope3_Seg07 Rope3_Seg06
Rope3_Seg08 Rope3_Seg07
Rope3_Seg09 Rope3_Seg08
R_rear_hand01 Rope3_Seg09
R_rear_hand02 Rope3_Seg09
R_rear_hand03 Rope3_Seg09
Rope4_Seg01 null_rope04_connect
Rope4_Seg02 Rope4_Seg01
Rope4_Seg03 Rope4_Seg02
Rope4_Seg04 Rope4_Seg03
Rope4_Seg05 Rope4_Seg04
Rope4_Seg06 Rope4_Seg05
Rope4_Seg07 Rope4_Seg06
Rope4_Seg08 Rope4_Seg07
Rope4_Seg09 Rope4_Seg08
L_rear_hand01 Rope4_Seg09
L_rear_hand02 Rope4_Seg09
L_rear_hand03 Rope4_Seg09
[BasePosition]
#SegmentName Tx, Ty, Tz, Rx, Ry, Rz, BoneLength
MASTER 0.000000 0.000000 0.000000 -90.000000 0.000000 0.000000 10.000000 
root 0.000000 0.000000 0.000000 0.000000 0.000000 0.000000 10.000000 
chest 0.000000 0.000000 0.000000 0.000000 0.000000 0.000000 10.000000 
L_mid_tent01 0.000000 0.000000 0.000000 0.000000 0.000000 0.000000 10.000000 
R_mid_tent01 0.000000 0.000000 0.000000 0.000000 0.000000 0.000000 10.000000 
spine01 0.000000 0.000000 0.000000 0.000000 0.000000 0.000000 10.000000 
Bip01_Neck 0.000000 0.000000 0.000000 0.000000 0.000000 0.000000 10.000000 
L_humerus 0.000000 0.000000 0.000000 0.000000 0.000000 0.000000 10.000000 
R_humerus 0.000000 0.000000 0.000000 0.000000 0.000000 0.000000 10.000000 
weapon_bone 0.000000 0.000000 0.000000 0.000000 0.000000 0.000000 10.000000 
Bip01_Head 0.000000 0.000000 0.000000 0.000000 0.000000 0.000000 10.000000 
eye_left_bone 0.000000 0.000000 0.000000 0.000000 0.000000 0.000000 10.000000 
eye_right_bone 0.000000 0.000000 0.000000 0.000000 0.000000 0.000000 10.000000 
L_forearm 0.000000 0.000000 0.000000 0.000000 0.000000 0.000000 10.000000 
L_front_hand 0.000000 0.000000 0.000000 0.000000 0.000000 0.000000 10.000000 
L_weapon_bone 0.000000 0.000000 0.000000 0.000000 0.000000 0.000000 10.000000 
L_front_hand01_01 0.000000 0.000000 0.000000 0.000000 0.000000 0.000000 10.000000 
L_front_hand02_01 0.000000 0.000000 0.000000 0.000000 0.000000 0.000000 10.000000 
L_front_hand03_01 0.000000 0.000000 0.000000 0.000000 0.000000 0.000000 10.000000 
L_front_hand01_02 0.000000 0.000000 0.000000 0.000000 0.000000 0.000000 10.000000 
L_front_hand02_02 0.000000 0.000000 0.000000 0.000000 0.000000 0.000000 10.000000 
L_front_hand03_02 0.000000 0.000000 0.000000 0.000000 0.000000 0.000000 10.000000 
R_forearm 0.000000 0.000000 0.000000 0.000000 0.000000 0.000000 10.000000 
R_front_hand 0.000000 0.000000 0.000000 0.000000 0.000000 0.000000 10.000000 
R_weapon_bone 0.000000 0.000000 0.000000 0.000000 0.000000 0.000000 10.000000 
R_front_hand01_01 0.000000 0.000000 0.000000 0.000000 0.000000 0.000000 10.000000 
R_front_hand02_01 0.000000 0.000000 0.000000 0.000000 0.000000 0.000000 10.000000 
R_front_hand03_01 0.000000 0.000000 0.000000 0.000000 0.000000 0.000000 10.000000 
R_front_hand01_02 0.000000 0.000000 0.000000 0.000000 0.000000 0.000000 10.000000 
R_front_hand02_02 0.000000 0.000000 0.000000 0.000000 0.000000 0.000000 10.000000 
R_front_hand03_02 0.000000 0.000000 0.000000 0.000000 0.000000 0.000000 10.000000 
null_rope01_connect 0.000000 0.000000 0.000000 0.000000 0.000000 0.000000 10.000000 
Rope1_Seg01 0.000000 0.000000 0.000000 0.000000 0.000000 0.000000 10.000000 
Rope1_Seg02 0.000000 0.000000 0.000000 0.000000 0.000000 0.000000 10.000000 
Rope1_Seg03 0.000000 0.000000 0.000000 0.000000 0.000000 0.000000 10.000000 
Rope1_Seg04 0.000000 0.000000 0.000000 0.000000 0.000000 0.000000 10.000000 
Rope1_Seg05 0.000000 0.000000 0.000000 0.000000 0.000000 0.000000 10.000000 
Rope1_Seg06 0.000000 0.000000 0.000000 0.000000 0.000000 0.000000 10.000000 
Rope1_Seg07 0.000000 0.000000 0.000000 0.000000 0.000000 0.000000 10.000000 
Rope1_Seg09 0.000000 0.000000 0.000000 0.000000 0.000000 0.000000 10.000000 
L_mid_hand01 0.000000 0.000000 0.000000 0.000000 0.000000 0.000000 10.000000 
L_mid_hand02 0.000000 0.000000 0.000000 0.000000 0.000000 0.000000 10.000000 
L_mid_hand03 0.000000 0.000000 0.000000 0.000000 0.000000 0.000000 10.000000 
null_rope02_connect 0.000000 0.000000 0.000000 0.000000 0.000000 0.000000 10.000000 
Rope2_Seg01 0.000000 0.000000 0.000000 0.000000 0.000000 0.000000 10.000000 
Rope2_Seg02 0.000000 0.000000 0.000000 0.000000 0.000000 0.000000 10.000000 
Rope2_Seg03 0.000000 0.000000 0.000000 0.000000 0.000000 0.000000 10.000000 
Rope2_Seg04 0.000000 0.000000 0.000000 0.000000 0.000000 0.000000 10.000000 
Rope2_Seg05 0.000000 0.000000 0.000000 0.000000 0.000000 0.000000 10.000000 
Rope2_Seg06 0.000000 0.000000 0.000000 0.000000 0.000000 0.000000 10.000000 
Rope2_Seg07 0.000000 0.000000 0.000000 0.000000 0.000000 0.000000 10.000000 
Rope2_Seg09 0.000000 0.000000 0.000000 0.000000 0.000000 0.000000 10.000000 
R_mid_hand01 0.000000 0.000000 0.000000 0.000000 0.000000 0.000000 10.000000 
R_mid_hand02 0.000000 0.000000 0.000000 0.000000 0.000000 0.000000 10.000000 
R_mid_hand03 0.000000 0.000000 0.000000 0.000000 0.000000 0.000000 10.000000 
spine02 0.000000 0.000000 0.000000 0.000000 0.000000 0.000000 10.000000 
spine03 0.000000 0.000000 0.000000 0.000000 0.000000 0.000000 10.000000 
pelvis 0.000000 0.000000 0.000000 0.000000 0.000000 0.000000 10.000000 
null_rope03_connect 0.000000 0.000000 0.000000 0.000000 0.000000 0.000000 10.000000 
null_rope04_connect 0.000000 0.000000 0.000000 0.000000 0.000000 0.000000 10.000000 
Rope3_Seg01 0.000000 0.000000 0.000000 0.000000 0.000000 0.000000 10.000000 
Rope3_Seg02 0.000000 0.000000 0.000000 0.000000 0.000000 0.000000 10.000000 
Rope3_Seg03 0.000000 0.000000 0.000000 0.000000 0.000000 0.000000 10.000000 
Rope3_Seg04 0.000000 0.000000 0.000000 0.000000 0.000000 0.000000 10.000000 
Rope3_Seg05 0.000000 0.000000 0.000000 0.000000 0.000000 0.000000 10.000000 
Rope3_Seg06 0.000000 0.000000 0.000000 0.000000 0.000000 0.000000 10.000000 
Rope3_Seg07 0.000000 0.000000 0.000000 0.000000 0.000000 0.000000 10.000000 
Rope3_Seg08 0.000000 0.000000 0.000000 0.000000 0.000000 0.000000 10.000000 
Rope3_Seg09 0.000000 0.000000 0.000000 0.000000 0.000000 0.000000 10.000000 
R_rear_hand01 0.000000 0.000000 0.000000 0.000000 0.000000 0.000000 10.000000 
R_rear_hand02 0.000000 0.000000 0.000000 0.000000 0.000000 0.000000 10.000000 
R_rear_hand03 0.000000 0.000000 0.000000 0.000000 0.000000 0.000000 10.000000 
Rope4_Seg01 0.000000 0.000000 0.000000 0.000000 0.000000 0.000000 10.000000 
Rope4_Seg02 0.000000 0.000000 0.000000 0.000000 0.000000 0.000000 10.000000 
Rope4_Seg03 0.000000 0.000000 0.000000 0.000000 0.000000 0.000000 10.000000 
Rope4_Seg04 0.000000 0.000000 0.000000 0.000000 0.000000 0.000000 10.000000 
Rope4_Seg05 0.000000 0.000000 0.000000 0.000000 0.000000 0.000000 10.000000 
Rope4_Seg06 0.000000 0.000000 0.000000 0.000000 0.000000 0.000000 10.000000 
Rope4_Seg07 0.000000 0.000000 0.000000 0.000000 0.000000 0.000000 10.000000 
Rope4_Seg08 0.000000 0.000000 0.000000 0.000000 0.000000 0.000000 10.000000 
Rope4_Seg09 0.000000 0.000000 0.000000 0.000000 0.000000 0.000000 10.000000 
L_rear_hand01 0.000000 0.000000 0.000000 0.000000 0.000000 0.000000 10.000000 
L_rear_hand02 0.000000 0.000000 0.000000 0.000000 0.000000 0.000000 10.000000 
L_rear_hand03 0.000000 0.000000 0.000000 0.000000 0.000000 0.000000 10.000000 
#Beginning of Data. Separated by tabs
#Fr	Tx	Ty	Tz	Rx	Ry	Rz	SF
[MASTER]
13 0.000000 0.000000 0.000000 0.001660 0.001660 0.001660 0.000000
14 0.000000 0.000000 0.000000 0.001660 0.001660 0.001660 0.000000
[root]
13 0.163140 -41.234978 503.132111 -101.732903 -13.582196 -82.215569 504.819031
14 2.741483 -26.269812 466.823059 -99.019753 -12.890799 -83.954414 467.569672
[chest]
13 -84.512650 -34.090519 0.000000 -8.796170 1.361836 163.231659 91.129311
14 -84.512650 -34.090519 0.000000 -9.053243 1.840552 165.635345 91.129311
[L_mid_tent01]
13 27.299540 22.177471 -249.918259 1.624745 27.892090 68.636871 252.381134
14 27.299543 22.177464 -249.918259 -0.158933 28.917494 68.188400 252.381134
[R_mid_tent01]
13 23.228794 24.509907 226.238495 -171.322083 -24.266485 55.628380 228.744751
14 23.228794 24.509907 226.238495 -168.299240 -24.249353 55.393257 228.744751
[spine01]
13 -0.361383 -0.195265 0.000000 0.001845 0.001451 13.654368 0.410763
14 -0.361383 -0.195265 0.000000 0.001845 0.001451 13.654368 0.410763
[Bip01_Neck]
13 165.484543 71.581718 0.000119 176.643677 -1.657967 43.431911 180.302734
14 165.484543 71.581718 0.000119 176.643677 -1.657967 43.431911 180.302734
[L_humerus]
13 -13.983130 -135.272980 -120.471481 171.138535 30.144098 -155.109283 181.680161
14 -13.983130 -135.272980 -120.471481 175.781540 24.554321 -160.224854 181.680161
[R_humerus]
13 -13.983309 -135.273102 125.287651 -177.583832 -23.110628 -148.804260 184.909012
14 -13.983309 -135.273102 125.287651 -179.804779 -17.167509 -156.017609 184.909012
[weapon_bone]
13 235.964890 -300.705902 0.000000 0.000000 -89.951546 -128.212341 382.234833
14 235.964890 -300.705902 0.000000 0.000000 -89.951546 -128.212341 382.234833
[Bip01_Head]
13 211.575394 184.908218 7.574431 5.137878 6.101199 -43.298626 281.091705
14 206.893600 181.773270 7.616559 4.959239 5.970955 -41.955204 275.507690
[eye_left_bone]
13 -24.626970 125.451866 -64.772606 0.000000 -90.000000 -99.840431 143.318359
14 -24.626970 125.451866 -64.772606 0.000000 -90.000000 -99.840431 143.318359
[eye_right_bone]
13 -24.626970 125.451866 64.327362 0.000000 -89.965736 80.156380 143.117676
14 -24.626970 125.451866 64.327362 0.000000 -89.965736 80.156380 143.117676
[L_forearm]
13 322.776093 0.000000 -0.000119 0.000445 -0.002305 -111.861748 322.776093
14 322.776093 0.000000 -0.000119 0.000489 -0.002296 -114.050835 322.776093
[L_front_hand]
13 241.149185 -0.042021 -3.300071 -178.667953 -1.835447 -27.422342 241.171753
14 241.149185 -0.042021 -3.300071 -178.667953 -1.835447 -27.422350 241.171753
[L_weapon_bone]
13 156.183838 0.000000 0.000000 0.000014 0.000007 0.000001 156.183838
14 156.183838 0.000000 0.000000 0.000014 0.000007 0.000001 156.183838
[L_front_hand01_01]
13 86.095154 20.947098 -0.655860 -0.365371 -0.478091 75.092110 88.609184
14 86.095154 20.947098 -0.655860 -0.366594 -0.477154 75.385574 88.609184
[L_front_hand02_01]
13 86.935165 -11.437475 24.513514 153.946472 -59.758556 -60.843468 91.046425
14 86.935165 -11.437475 24.513514 154.399796 -59.883835 -61.369587 91.046425
[L_front_hand03_01]
13 86.637497 -14.123976 -20.424902 -153.504349 57.989811 -62.217361 90.126129
14 86.637497 -14.123976 -20.424902 -153.913849 58.118122 -62.702866 90.126129
[L_front_hand01_02]
13 71.020905 -0.000179 0.000030 0.000334 -0.002323 -106.342621 71.020905
14 71.020905 -0.000179 0.000030 0.000334 -0.002323 -106.379684 71.020905
[L_front_hand02_02]
13 71.020927 -0.000119 0.000060 0.000334 -0.002323 -106.342621 71.020927
14 71.020927 -0.000119 0.000060 0.000334 -0.002323 -106.379684 71.020927
[L_front_hand03_02]
13 71.020905 -0.000060 0.000060 0.000334 -0.002323 -106.342621 71.020905
14 71.020905 -0.000060 0.000060 0.000334 -0.002323 -106.379684 71.020905
[R_forearm]
13 322.776428 -0.000060 0.000030 0.206257 0.061747 -107.781464 322.776428
14 322.776428 -0.000060 0.000030 0.200997 0.068491 -109.958092 322.776428
[R_front_hand]
13 238.847015 -0.006795 2.210259 -2.635298 -10.645461 -26.312506 238.857239
14 238.847015 -0.006795 2.210259 -2.635298 -10.645461 -26.312506 238.857239
[R_weapon_bone]
13 155.664093 0.002503 -0.000030 0.003487 0.001180 -90.988930 155.664078
14 155.664093 0.002503 -0.000030 0.003487 0.001180 -90.988930 155.664078
[R_front_hand01_01]
13 87.624611 14.231146 22.918642 -154.633499 -59.950619 61.746044 91.683487
14 87.624611 14.231146 22.918642 -154.633499 -59.950619 61.746044 91.683487
[R_front_hand02_01]
13 89.356956 14.367283 -19.491137 154.602661 58.302849 63.744389 92.579636
14 89.356956 14.367283 -19.491137 154.602661 58.302849 63.744389 92.579636
[R_front_hand03_01]
13 87.286232 -22.307278 -0.143439 0.162155 -0.423168 -75.767921 90.091743
14 87.286232 -22.307278 -0.143439 0.162155 -0.423168 -75.767921 90.091743
[R_front_hand01_02]
13 71.020905 0.000060 0.000119 0.002323 -0.000334 106.381714 71.020905
14 71.020905 0.000060 0.000119 0.002323 -0.000334 106.381714 71.020905
[R_front_hand02_02]
13 71.020844 -0.000030 -0.000119 0.002323 -0.000334 106.381714 71.020836
14 71.020844 -0.000030 -0.000119 0.002323 -0.000334 106.381714 71.020836
[R_front_hand03_02]
13 71.020905 0.000000 0.000030 0.002323 -0.000334 106.381714 71.020905
14 71.020905 0.000000 0.000030 0.002323 -0.000334 106.381714 71.020905
[null_rope01_connect]
13 328.732483 0.000000 -0.000238 -157.326324 -54.704453 -163.754929 328.732483
14 328.732483 0.000000 -0.000238 -157.634491 -55.225388 -165.070969 328.732483
[Rope1_Seg01]
13 0.000000 0.000000 0.000000 115.030304 -24.323400 151.914017 0.000000
14 0.000000 0.000000 0.000000 118.544830 -31.254181 146.462570 0.000000
[Rope1_Seg02]
13 139.999863 -0.000179 0.000000 -1.621344 -14.510764 -9.551504 139.999863
14 139.999863 -0.000179 0.000000 -3.185550 -11.713600 -9.027144 139.999863
[Rope1_Seg03]
13 139.999924 0.000060 -0.000060 -2.228927 -16.127930 -12.368248 139.999924
14 139.999924 0.000060 -0.000060 -3.666407 -13.997690 -12.969317 139.999924
[Rope1_Seg04]
13 139.999924 -0.000060 -0.000119 -2.029460 -11.205006 -10.710374 139.999924
14 139.999924 -0.000060 -0.000119 -2.632124 -10.499118 -14.191316 139.999924
[Rope1_Seg05]
13 139.999832 0.000119 -0.000060 -1.830122 -9.902756 -7.152977 139.999832
14 139.999832 0.000119 -0.000060 -1.620551 -8.822749 -8.553209 139.999832
[Rope1_Seg06]
13 139.999954 0.000119 -0.000060 -3.267422 -17.683113 -10.794365 139.999954
14 139.999954 0.000119 -0.000060 -2.624064 -17.786819 -10.957485 139.999954
[Rope1_Seg07]
13 139.999985 0.000060 0.000000 -3.870958 -16.180235 -12.853598 139.999985
14 139.999985 0.000060 0.000000 -3.577392 -20.312599 -15.836493 139.999985
[Rope1_Seg09]
13 121.602913 0.000119 -0.000089 -89.793175 -1.359789 0.847147 121.602913
14 121.602913 0.000119 -0.000089 -89.793175 -1.359789 0.847147 121.602913
[L_mid_hand01]
13 103.859421 1.038730 8.195221 109.056198 -40.604698 -13.201401 104.187431
14 103.859421 1.038730 8.195221 109.056198 -40.604698 -13.201401 104.187431
[L_mid_hand02]
13 105.572853 -4.139662 -10.864139 -146.713593 31.476528 -37.902313 106.211075
14 105.572853 -4.139662 -10.864139 -146.713593 31.476528 -37.902313 106.211075
[L_mid_hand03]
13 104.641464 17.579376 -3.913581 -14.267233 12.322316 43.898396 106.179977
14 104.641464 17.579376 -3.913581 -14.267233 12.322316 43.898396 106.179977
[null_rope02_connect]
13 328.732849 0.000179 -0.000119 -124.679955 69.705986 10.654588 328.732849
14 328.732849 0.000179 -0.000119 -140.959732 68.916771 -4.774283 328.732849
[Rope2_Seg01]
13 0.000076 0.000111 0.000153 -48.280064 -43.341663 41.949688 0.000203
14 0.000076 0.000111 0.000153 -50.244385 -46.635242 44.034252 0.000204
[Rope2_Seg02]
13 139.999741 -0.000060 -0.000119 1.518982 4.098275 7.331399 139.999756
14 139.999741 -0.000060 -0.000119 1.677721 4.093241 6.528934 139.999756
[Rope2_Seg03]
13 140.000107 0.000030 0.000000 2.396355 6.763766 11.579500 140.000107
14 140.000107 0.000030 0.000000 2.608650 6.915123 10.506593 140.000107
[Rope2_Seg04]
13 139.999802 0.000000 -0.000060 3.294266 12.826781 16.949713 139.999802
14 139.999802 0.000000 -0.000060 3.656719 14.142906 16.367310 139.999802
[Rope2_Seg05]
13 139.999985 -0.000060 0.000119 1.384001 11.803482 16.801218 139.999985
14 139.999985 -0.000060 0.000119 1.327378 14.760056 17.193039 139.999985
[Rope2_Seg06]
13 139.999893 -0.000030 -0.000119 0.850898 4.362629 24.060972 139.999893
14 139.999893 -0.000030 -0.000119 -0.104287 4.188324 25.395693 139.999893
[Rope2_Seg07]
13 139.999893 0.000060 -0.000060 3.824553 3.248407 27.131842 139.999893
14 139.999893 0.000060 -0.000060 3.502142 1.334568 29.921478 139.999893
[Rope2_Seg09]
13 121.338966 0.000089 -0.000060 33.793236 -1.359788 -0.847141 121.338966
14 121.338966 0.000089 -0.000060 33.793236 -1.359788 -0.847141 121.338966
[R_mid_hand01]
13 104.680779 11.144459 -10.335981 -37.204067 31.906805 37.576260 105.778534
14 104.680779 11.144459 -10.335981 -37.204079 31.906813 37.576260 105.778534
[R_mid_hand02]
13 104.070427 2.443552 8.231699 70.367455 -42.427380 14.067807 104.424065
14 104.070427 2.443552 8.231699 70.367462 -42.427387 14.067807 104.424065
[R_mid_hand03]
13 106.028137 -11.221827 -5.996406 -169.893616 12.226661 -47.211018 106.788818
14 106.028137 -11.221827 -5.996406 -169.893616 12.226661 -47.211018 106.788818
[spine02]
13 129.756927 0.001550 0.000119 -1.023899 -3.926965 6.770993 129.756927
14 129.756927 0.001550 0.000119 -1.023899 -3.926965 6.770993 129.756927
[spine03]
13 78.613846 0.087372 -4.898873 1.040681 4.146420 4.212376 78.766380
14 78.613846 0.087372 -4.898873 1.040680 4.146419 4.212375 78.766380
[pelvis]
13 169.435242 0.051022 0.000000 0.019518 -0.190233 -10.721436 169.435257
14 169.435242 0.051022 0.000000 0.019518 -0.190233 -10.721436 169.435257
[null_rope03_connect]
13 -1.257226 -2.466202 137.391083 157.469360 -77.316414 -66.922180 137.418976
14 -1.257226 -2.466202 137.391083 156.636826 -80.089188 -67.102432 137.418976
[null_rope04_connect]
13 -1.259640 -2.480268 -137.844437 157.469360 -77.316414 -66.922180 137.872513
14 -1.259640 -2.480268 -137.844437 156.636826 -80.089188 -67.102432 137.872513
[Rope3_Seg01]
13 0.000000 0.000000 0.000000 171.907181 -45.171494 -16.201103 0.000000
14 0.000000 0.000000 0.000000 170.200851 -49.548985 -17.942272 0.000000
[Rope3_Seg02]
13 139.999924 -0.000119 0.000060 11.880771 -8.808777 2.195554 139.999924
14 139.999924 -0.000119 0.000060 9.691224 -8.401872 1.667173 139.999924
[Rope3_Seg03]
13 139.999924 -0.000119 0.000119 24.856684 -17.031969 8.574920 139.999924
14 139.999924 -0.000119 0.000119 21.940430 -16.811733 6.648676 139.999924
[Rope3_Seg04]
13 139.999924 0.000119 0.000000 22.997499 -22.769033 32.806950 139.999924
14 139.999924 0.000119 0.000000 25.648979 -27.038347 29.620947 139.999924
[Rope3_Seg05]
13 139.999924 -0.000238 0.000060 5.086943 -3.716481 27.903595 139.999924
14 139.999924 -0.000238 0.000060 6.336570 -6.485379 29.960331 139.999924
[Rope3_Seg06]
13 139.999893 -0.000119 -0.000060 0.656380 -0.565312 11.313079 139.999893
14 139.999893 -0.000119 -0.000060 0.893546 -1.216457 11.471524 139.999893
[Rope3_Seg07]
13 139.999771 0.000060 -0.000119 -0.738692 -0.885035 13.865024 139.999771
14 139.999771 0.000060 -0.000119 -0.353250 -1.631177 12.645144 139.999771
[Rope3_Seg08]
13 139.999985 -0.000060 0.000000 -3.923779 -1.225384 18.002295 139.999985
14 139.999985 -0.000060 0.000000 -3.126872 -2.174929 17.101807 139.999985
[Rope3_Seg09]
13 90.185997 -0.000179 -0.000060 89.793228 -1.359877 -0.847183 90.185997
14 90.185997 -0.000179 -0.000060 89.793228 -1.359877 -0.847183 90.185997
[R_rear_hand01]
13 103.366196 -6.073594 -10.757982 -164.755127 19.627697 -40.352161 104.101845
14 103.366196 -6.073594 -10.757982 -164.755127 19.627697 -40.352161 104.101845
[R_rear_hand02]
13 100.509819 12.039542 -7.992327 -30.792645 24.782444 38.141533 101.543350
14 100.509819 12.039542 -7.992327 -30.792645 24.782444 38.141533 101.543350
[R_rear_hand03]
13 101.539970 5.215704 5.435467 82.448349 -41.048256 8.840378 101.819031
14 101.539970 5.215704 5.435467 82.448349 -41.048256 8.840378 101.819031
[Rope4_Seg01]
13 -0.000004 -0.000056 -0.000073 76.449158 -40.326710 -138.476883 0.000092
14 -0.000003 -0.000055 -0.000066 75.173584 -36.583813 -140.791565 0.000086
[Rope4_Seg02]
13 139.999985 0.000060 0.000119 -21.405855 7.142023 -24.568600 139.999985
14 139.999985 0.000060 0.000119 -21.933102 8.482553 -23.244324 139.999985
[Rope4_Seg03]
13 139.999924 0.000000 -0.000238 -14.165392 10.841714 -16.021236 139.999924
14 139.999924 0.000000 -0.000238 -10.350036 9.072021 -11.067101 139.999924
[Rope4_Seg04]
13 139.999985 0.000000 0.000119 -5.795431 7.940315 -7.195490 139.999985
14 139.999985 0.000000 0.000119 -4.026567 5.436373 -4.669417 139.999985
[Rope4_Seg05]
13 139.999802 -0.000060 -0.000119 -10.277300 22.871662 -15.042134 139.999802
14 139.999802 -0.000060 -0.000119 -9.643827 17.899181 -12.615746 139.999802
[Rope4_Seg06]
13 139.999924 0.000000 0.000060 -4.186998 36.115200 -18.800192 139.999924
14 139.999924 0.000000 0.000060 -10.924723 42.417545 -26.624508 139.999924
[Rope4_Seg07]
13 139.999802 0.000000 0.000000 4.047992 13.432518 -6.776434 139.999802
14 139.999802 0.000000 0.000000 5.118726 18.152220 -9.138934 139.999802
[Rope4_Seg08]
13 139.999924 0.000000 0.000119 1.266085 5.618127 -3.408053 139.999924
14 139.999924 0.000000 0.000119 2.000937 6.437054 -4.112745 139.999924
[Rope4_Seg09]
13 90.185791 0.000060 0.000060 -135.617828 2.228885 0.850567 90.185791
14 90.185791 0.000060 0.000060 -135.617828 2.228885 0.850567 90.185791
[L_rear_hand01]
13 101.696655 -8.392275 -7.654577 -31.684452 -23.583008 144.025742 102.329041
14 101.696655 -8.392275 -7.654577 -31.684452 -23.583008 144.025742 102.329041
[L_rear_hand02]
13 102.726799 -1.568258 5.773216 82.701553 38.753956 171.553619 102.900848
14 102.726799 -1.568258 5.773216 82.701553 38.753956 171.553619 102.900848
[L_rear_hand03]
13 104.552910 9.721220 -10.420293 -163.975403 -19.004421 -142.009338 105.519653
14 104.552910 9.721220 -10.420293 -163.975388 -19.004416 -142.009338 105.519653
